<svg xmlns="http://www.w3.org/2000/svg" viewBox="0 0 880 540" font-family="ui-sans-serif,Segoe UI,Helvetica,Arial,sans-serif">
  <defs>
    <marker id="arrow2" markerWidth="10" markerHeight="10" refX="8" refY="3" orient="auto" markerUnits="strokeWidth">
      <path d="M0,0 L8,3 L0,6 Z" fill="#4d9fff"/>
    </marker>
  </defs>
  <rect x="0" y="0" width="880" height="540" fill="#0d1117"/>
  <text x="40" y="44" fill="#e6edf3" font-size="22" font-weight="600">Requisite Variety → Loop Altitude</text>
  <text x="40" y="70" fill="#8b949e" font-size="14">Only variety absorbs variety. Match questions, state, verification, and machinery to the task.</text>

  <!-- column headers -->
  <text x="200" y="110" fill="#9fb6d6" font-size="13" text-anchor="middle" font-weight="600">TASK VARIETY</text>
  <text x="650" y="110" fill="#9fb6d6" font-size="13" text-anchor="middle" font-weight="600">MATCHED RESPONSE</text>

  <!-- LOW -->
  <rect x="60" y="130" width="280" height="80" rx="10" fill="#0d2a4d" stroke="#326ce5"/>
  <text x="80" y="162" fill="#e6edf3" font-size="15" font-weight="600">Low</text>
  <text x="80" y="186" fill="#9fb6d6" font-size="12.5">small · clear · low-risk · no fan-out</text>
  <rect x="500" y="130" width="320" height="80" rx="10" fill="#161b22" stroke="#4d9fff"/>
  <text x="520" y="162" fill="#e6edf3" font-size="13.5">stay</text>
  <text x="520" y="186" fill="#8b949e" font-size="12.5">main thread · verify locally</text>
  <line x1="340" y1="170" x2="496" y2="170" stroke="#4d9fff" stroke-width="1.8" marker-end="url(#arrow2)"/>

  <!-- MEDIUM -->
  <rect x="60" y="230" width="280" height="80" rx="10" fill="#0d2a4d" stroke="#326ce5"/>
  <text x="80" y="262" fill="#e6edf3" font-size="15" font-weight="600">Medium</text>
  <text x="80" y="286" fill="#9fb6d6" font-size="12.5">several files · clear local checks</text>
  <rect x="500" y="230" width="320" height="80" rx="10" fill="#161b22" stroke="#4d9fff"/>
  <text x="520" y="262" fill="#e6edf3" font-size="13.5">stay / down</text>
  <text x="520" y="286" fill="#8b949e" font-size="12.5">short checklist · define verifier</text>
  <line x1="340" y1="270" x2="496" y2="270" stroke="#4d9fff" stroke-width="1.8" marker-end="url(#arrow2)"/>

  <!-- HIGH -->
  <rect x="60" y="330" width="280" height="80" rx="10" fill="#0d2a4d" stroke="#326ce5"/>
  <text x="80" y="362" fill="#e6edf3" font-size="15" font-weight="600">High</text>
  <text x="80" y="386" fill="#9fb6d6" font-size="12.5">ambiguous · risky · many parts</text>
  <rect x="500" y="330" width="320" height="80" rx="10" fill="#161b22" stroke="#4d9fff"/>
  <text x="520" y="362" fill="#e6edf3" font-size="13.5">up / down</text>
  <text x="520" y="386" fill="#8b949e" font-size="12.5">durable state · architecture · safety</text>
  <line x1="340" y1="370" x2="496" y2="370" stroke="#4d9fff" stroke-width="1.8" marker-end="url(#arrow2)"/>

  <!-- EXTREME -->
  <rect x="60" y="430" width="280" height="80" rx="10" fill="#0d2a4d" stroke="#326ce5"/>
  <text x="80" y="462" fill="#e6edf3" font-size="15" font-weight="600">Extreme</text>
  <text x="80" y="486" fill="#9fb6d6" font-size="12.5">subsystems · rollout · broad proof</text>
  <rect x="500" y="430" width="320" height="80" rx="10" fill="#161b22" stroke="#4d9fff"/>
  <text x="520" y="462" fill="#e6edf3" font-size="13.5">stack / stop</text>
  <text x="520" y="486" fill="#8b949e" font-size="12.5">bounded child loops · checkpoints · HITL</text>
  <line x1="340" y1="470" x2="496" y2="470" stroke="#4d9fff" stroke-width="1.8" marker-end="url(#arrow2)"/>

  <!-- spine label -->
  <text x="418" y="120" fill="#d29922" font-size="11.5" text-anchor="middle">loop governor ≥ task variety</text>
</svg>
