<svg xmlns="http://www.w3.org/2000/svg" viewBox="0 0 880 480" font-family="ui-sans-serif,Segoe UI,Helvetica,Arial,sans-serif">
  <defs>
    <marker id="a3" markerWidth="10" markerHeight="10" refX="8" refY="3" orient="auto" markerUnits="strokeWidth">
      <path d="M0,0 L8,3 L0,6 Z" fill="#8b949e"/>
    </marker>
    <marker id="a3g" markerWidth="10" markerHeight="10" refX="8" refY="3" orient="auto" markerUnits="strokeWidth">
      <path d="M0,0 L8,3 L0,6 Z" fill="#3fb950"/>
    </marker>
  </defs>
  <rect x="0" y="0" width="880" height="480" fill="#0d1117"/>
  <text x="40" y="44" fill="#e6edf3" font-size="22" font-weight="600">Loop Altitude Changes</text>
  <text x="40" y="70" fill="#8b949e" font-size="14">When the gap stops shrinking, change altitude instead of repeating the same motion.</text>

  <!-- Loop 3 outer -->
  <rect x="60" y="95" width="700" height="300" rx="16" fill="none" stroke="#3fb950" stroke-width="1.6"/>
  <text x="80" y="120" fill="#3fb950" font-size="13" font-weight="600">Loop 3 — LEARN</text>

  <!-- Loop 2 middle -->
  <rect x="95" y="135" width="630" height="225" rx="14" fill="none" stroke="#d29922" stroke-width="1.6"/>
  <text x="115" y="160" fill="#d29922" font-size="13" font-weight="600">Loop 2 — RE-FRAME</text>

  <!-- Loop 1 inner -->
  <rect x="135" y="175" width="430" height="150" rx="12" fill="none" stroke="#4d9fff" stroke-width="1.6"/>
  <text x="155" y="200" fill="#4d9fff" font-size="13" font-weight="600">Loop 1 — REGULATE</text>

  <rect x="170" y="220" width="150" height="60" rx="10" fill="#0d2a4d" stroke="#4d9fff"/>
  <text x="245" y="255" fill="#e6edf3" font-size="14" text-anchor="middle">Stay / Down</text>
  <rect x="380" y="220" width="150" height="60" rx="10" fill="#0d2a4d" stroke="#4d9fff"/>
  <text x="455" y="248" fill="#e6edf3" font-size="13" text-anchor="middle">Measure gap</text>
  <text x="455" y="266" fill="#9fb6d6" font-size="11" text-anchor="middle">to DONE</text>
  <line x1="320" y1="242" x2="376" y2="242" stroke="#8b949e" stroke-width="1.6" marker-end="url(#a3)"/>
  <path d="M380,262 L320,262" fill="none" stroke="#8b949e" stroke-width="1.6" marker-end="url(#a3)"/>

  <!-- Loop 2 action -->
  <rect x="590" y="205" width="120" height="90" rx="10" fill="#161b22" stroke="#d29922"/>
  <text x="650" y="232" fill="#e6edf3" font-size="12.5" text-anchor="middle">go up</text>
  <text x="650" y="250" fill="#e6edf3" font-size="12.5" text-anchor="middle">scope / plan / goal</text>
  <text x="650" y="276" fill="#d29922" font-size="11" text-anchor="middle">→ HITL if needed</text>
  <line x1="565" y1="250" x2="586" y2="250" stroke="#d29922" stroke-width="1.6" marker-end="url(#a3)"/>

  <!-- Loop 3 action -->
  <rect x="300" y="318" width="300" height="56" rx="10" fill="#0d2a4d" stroke="#3fb950"/>
  <text x="450" y="343" fill="#e6edf3" font-size="13" text-anchor="middle">Capture reusable learning</text>
  <text x="450" y="361" fill="#9fb6a0" font-size="11.5" text-anchor="middle">skill docs / control record / tests</text>

  <!-- feedback to controller -->
  <rect x="555" y="415" width="285" height="46" rx="10" fill="#161b22" stroke="#3fb950"/>
  <text x="697" y="443" fill="#e6edf3" font-size="12.5" text-anchor="middle">The loop governor starts next run smarter</text>
  <path d="M450,374 L450,438 L551,438" fill="none" stroke="#3fb950" stroke-width="1.8" stroke-dasharray="5 4" marker-end="url(#a3g)"/>
  <text x="250" y="438" fill="#3fb950" font-size="11.5">updates the loop governor itself ↴</text>
</svg>
